<?xml version="1.0" encoding="UTF-8" standalone="no"?>
<svg width="41.03" height="38.79" xmlns="http://www.w3.org/2000/svg" xmlns:xlink="http://www.w3.org/1999/xlink" fill="#fff">
    <ellipse class="b" cx="20.6" cy="22.2" rx="6.52" ry="6.59"></ellipse>
    <path class="a" d="M48.4,31.16H40.59a13.48,13.48,0,0,1-4.38,5.77,13.27,13.27,0,0,0-16.35-.22A13.32,13.32,0,1,1,40.59,21.48H48.4a20.8,20.8,0,0,0-16-15.54l-.15,0-.81-.15-.23,0-.76-.1-.26,0-.78,0-.23,0c-.34,0-.67,0-1,0A20.82,20.82,0,0,0,7.37,26.31v.08c0,.36,0,.72,0,1.07,0,.16,0,.31,0,.47s0,.44.06.67l.06.53.09.58c0,.19.06.38.1.57s.07.34.11.51.08.4.13.59.08.31.13.46.11.41.17.62.07.2.1.31a23.91,23.91,0,0,0,.93,2.35c0,.08.08.17.13.26s.22.45.34.67l.15.28.37.65.15.25c.14.22.28.44.43.65a1.88,1.88,0,0,0,.12.18,21.07,21.07,0,0,0,3.16,3.64h0c.24.22.49.44.75.65h0a20.44,20.44,0,0,0,2.66,1.86A10.8,10.8,0,0,1,24.88,37h0l.7-.18h0a5.55,5.55,0,0,1,.71-.13h.08L27,36.6h.17c.24,0,.47,0,.71,0s.49,0,.73,0h.17a11.52,11.52,0,0,1,1.45.22l.09,0a10.78,10.78,0,0,1,7.93,7.66A20.87,20.87,0,0,0,48.4,31.16Z" transform="translate(-7.37 -5.5)"></path>
</svg>